<svg width="24" height="24" viewBox="0 0 24 24" fill="none" xmlns="http://www.w3.org/2000/svg">
    <path d="M6.61452 7.63242L4.36309 5.3817L5.38189 4.3629L19.6371 18.6189L18.6183 19.637L16.2351 17.2538C14.9688 18.057 13.4997 18.4823 12.0001 18.4799C8.11788 18.4799 4.88797 15.6863 4.21045 11.9999C4.52007 10.3229 5.36362 8.79082 6.61524 7.63242H6.61452ZM13.9851 15.0038L12.9311 13.9497C12.5279 14.1426 12.0748 14.2057 11.6343 14.1303C11.1938 14.0548 10.7875 13.8446 10.4715 13.5286C10.1554 13.2126 9.94521 12.8063 9.86979 12.3657C9.79437 11.9252 9.85745 11.4721 10.0504 11.069L8.99628 10.0149C8.53815 10.7072 8.33335 11.5365 8.41655 12.3624C8.49976 13.1884 8.86585 13.9602 9.45284 14.5472C10.0398 15.1342 10.8116 15.5003 11.6376 15.5835C12.4635 15.6667 13.2929 15.4619 13.9851 15.0038V15.0038ZM9.1014 6.06714C9.99923 5.71434 10.9777 5.51994 12.0001 5.51994C15.8823 5.51994 19.1122 8.31354 19.7898 11.9999C19.5691 13.1992 19.0733 14.331 18.3411 15.3062L15.5619 12.527C15.6445 11.9709 15.5957 11.4031 15.4193 10.8693C15.243 10.3354 14.9441 9.85031 14.5465 9.45277C14.149 9.05523 13.6639 8.75632 13.13 8.57999C12.5962 8.40366 12.0285 8.35482 11.4723 8.43738L9.1014 6.06786V6.06714Z" fill="currentColor"/>
</svg>
