<svg width="69" height="24" viewBox="0 0 69 24" fill="none" xmlns="http://www.w3.org/2000/svg">
    <path d="M3.74839 4.22764C3.74839 3.96748 3.68263 3.75068 3.55111 3.57724C3.41959 3.4038 3.21134 3.31707 2.92638 3.31707C2.29068 3.33875 1.8742 3.55556 1.67691 3.96748L0 2.53659C0.284965 2.0813 0.679533 1.7019 1.1837 1.39838C1.68787 1.07317 2.3126 0.899729 3.0579 0.878049C4.11008 0.856369 4.92113 1.13821 5.49106 1.72358C6.061 2.28726 6.34596 3.04607 6.34596 4C6.34596 4.26016 6.335 4.45529 6.31308 4.58537L5.49106 10.7967H16.1773L17.4596 1.33333H20.0572L17.0979 23.6748H14.4675L15.8485 13.2683H5.16226L3.78127 23.6748H1.1837L3.71551 4.48781L3.74839 4.22764Z" fill="url(#paint0_linear_130_5421)"/>
    <path d="M23.5122 20.9756C23.5122 21.3875 23.6985 21.5935 24.0712 21.5935C24.2466 21.5935 24.4219 21.5393 24.5973 21.4309C24.7726 21.3008 24.9151 21.1382 25.0247 20.9431L26.8003 22.2764C26.0769 23.4255 25.0905 24 23.841 24C22.9204 24 22.197 23.7507 21.6709 23.252C21.1448 22.7534 20.8818 22.0705 20.8818 21.2033C20.8818 20.9431 20.8927 20.7371 20.9146 20.5854L22.6573 7.34959H25.2878L23.5122 20.813V20.9756ZM24.4986 4.19512C24.0821 4.19512 23.7205 4.04336 23.4136 3.73984C23.1067 3.41463 22.9532 3.03523 22.9532 2.60163C22.9532 2.14634 23.1286 1.73442 23.4793 1.36585C23.852 0.975611 24.2575 0.780489 24.6959 0.780489C25.1343 0.780489 25.507 0.943091 25.8139 1.26829C26.1427 1.5935 26.3071 1.9729 26.3071 2.4065C26.3071 2.86179 26.1098 3.27371 25.7152 3.64228C25.3426 4.01084 24.937 4.19512 24.4986 4.19512Z" fill="url(#paint1_linear_130_5421)"/>
    <path d="M32.4694 23.9675C30.102 23.9675 28.1291 23.0461 26.5509 21.2033L28.2278 19.4797C28.9073 20.1951 29.5868 20.7154 30.2664 21.0407C30.9459 21.3659 31.6802 21.5285 32.4694 21.5285C33.5435 21.5285 34.4312 21.29 35.1327 20.813C35.8341 20.3144 36.2397 19.6314 36.3493 18.7642L36.3822 18.439C36.3822 18.0488 36.2726 17.7236 36.0534 17.4634C35.8341 17.2033 35.5273 16.9756 35.1327 16.7805C34.7381 16.5637 34.0696 16.2493 33.127 15.8374C31.6145 15.2304 30.5075 14.645 29.806 14.0813C29.1265 13.5176 28.7867 12.7263 28.7867 11.7073C28.7867 10.7317 29.0279 9.87534 29.5101 9.13821C29.9924 8.37941 30.65 7.79404 31.4829 7.38212C32.3378 6.94851 33.2804 6.73171 34.3107 6.73171C35.2094 6.73171 36.0862 6.88347 36.9411 7.18699C37.796 7.49052 38.4536 7.86992 38.914 8.3252L37.6316 10.1789C36.7986 9.4851 35.7465 9.13821 34.4751 9.13821C33.5763 9.13821 32.842 9.34418 32.2721 9.7561C31.7241 10.168 31.4501 10.71 31.4501 11.3821C31.4501 11.729 31.5597 12.0325 31.7789 12.2927C31.9981 12.5528 32.2611 12.7696 32.568 12.9431C32.8749 13.0949 33.4119 13.355 34.1792 13.7236C35.9109 14.439 37.1494 15.1111 37.8947 15.7398C38.64 16.3469 39.0126 17.1707 39.0126 18.2114C39.0126 19.3388 38.7167 20.336 38.1248 21.2033C37.5549 22.0705 36.7658 22.7534 35.7574 23.252C34.771 23.729 33.675 23.9675 32.4694 23.9675Z" fill="url(#paint2_linear_130_5421)"/>
    <path d="M45.385 23.9675C44.2013 23.9675 43.193 23.8916 42.36 23.7398C41.9435 23.7182 41.4722 23.6531 40.9461 23.5447C40.4201 23.4146 40.0364 23.2954 39.7953 23.187L42.8203 0H45.4508L44.2671 8.35772C44.9247 7.8374 45.6371 7.458 46.4043 7.21951C47.1715 6.95935 47.9278 6.82927 48.6731 6.82927C50.5144 6.82927 51.9721 7.49052 53.0462 8.81301C54.1203 10.1138 54.6574 11.8049 54.6574 13.8862C54.6574 14.4065 54.6245 14.9485 54.5587 15.5122C54.2299 17.9404 53.2983 19.9566 51.7639 21.561C50.2294 23.1653 48.1032 23.9675 45.385 23.9675ZM45.4179 21.5285C47.4565 21.5285 48.9909 20.9539 50.0212 19.8049C51.0734 18.6558 51.731 17.1491 51.994 15.2846C52.0598 14.8293 52.0927 14.3848 52.0927 13.9512C52.0927 12.477 51.7529 11.3279 51.0734 10.5041C50.4158 9.65854 49.5609 9.23577 48.5087 9.23577C47.5223 9.23577 46.5797 9.5935 45.681 10.3089C44.6288 10.916 43.9712 11.8266 43.7081 13.0407L42.5902 21.3333L43.7739 21.4634C44.1904 21.5068 44.7384 21.5285 45.4179 21.5285Z" fill="url(#paint3_linear_130_5421)"/>
    <path d="M61.6019 23.9675C59.4975 23.9675 57.8754 23.3496 56.7355 22.1138C55.5957 20.8564 55.0257 19.2412 55.0257 17.2683C55.0257 16.813 55.0586 16.3469 55.1244 15.8699C55.3217 14.4173 55.771 13.0081 56.4725 11.6423C57.1959 10.2547 58.1604 9.11653 59.366 8.22764C60.5935 7.33875 62.0074 6.89431 63.6076 6.89431C65.142 6.89431 66.4244 7.31707 67.4546 8.1626C68.4849 9.00813 69 10.1355 69 11.5447C69 12.7588 68.6602 13.8211 67.9807 14.7317C67.3012 15.6206 66.3586 16.3035 65.153 16.7805C63.9693 17.2358 62.6212 17.4417 61.1086 17.3984H57.7219C57.7877 18.7425 58.1604 19.7724 58.8399 20.4878C59.5194 21.1816 60.4949 21.5285 61.7663 21.5285C63.5199 21.5285 65.2516 20.9323 66.9614 19.7398L68.2766 21.6585C66.0846 23.1978 63.8597 23.9675 61.6019 23.9675ZM61.3059 15.0569C62.7308 15.0569 63.8925 14.7968 64.7913 14.2764C65.7119 13.7344 66.249 12.9539 66.4024 11.935C66.4244 11.8482 66.4353 11.7182 66.4353 11.5447C66.4353 10.8293 66.1723 10.2764 65.6462 9.88618C65.1201 9.49594 64.4625 9.30081 63.6733 9.30081C62.665 9.30081 61.7553 9.60434 60.9442 10.2114C60.1332 10.8184 59.4646 11.5772 58.9385 12.4878C58.4344 13.3767 58.0946 14.2547 57.9192 15.122L61.3059 15.0569Z" fill="url(#paint4_linear_130_5421)"/>
    <defs>
        <linearGradient id="paint0_linear_130_5421" x1="13.3312" y1="-7.97471" x2="70.4869" y2="30.0926" gradientUnits="userSpaceOnUse">
            <stop stop-color="#4E4BDF"/>
            <stop offset="1" stop-color="#FF994A"/>
        </linearGradient>
        <linearGradient id="paint1_linear_130_5421" x1="13.3312" y1="-7.97471" x2="70.4869" y2="30.0926" gradientUnits="userSpaceOnUse">
            <stop stop-color="#4E4BDF"/>
            <stop offset="1" stop-color="#FF994A"/>
        </linearGradient>
        <linearGradient id="paint2_linear_130_5421" x1="13.3312" y1="-7.97471" x2="70.4869" y2="30.0926" gradientUnits="userSpaceOnUse">
            <stop stop-color="#4E4BDF"/>
            <stop offset="1" stop-color="#FF994A"/>
        </linearGradient>
        <linearGradient id="paint3_linear_130_5421" x1="13.3312" y1="-7.97471" x2="70.4869" y2="30.0926" gradientUnits="userSpaceOnUse">
            <stop stop-color="#4E4BDF"/>
            <stop offset="1" stop-color="#FF994A"/>
        </linearGradient>
        <linearGradient id="paint4_linear_130_5421" x1="13.3312" y1="-7.97471" x2="70.4869" y2="30.0926" gradientUnits="userSpaceOnUse">
            <stop stop-color="#4E4BDF"/>
            <stop offset="1" stop-color="#FF994A"/>
        </linearGradient>
    </defs>
</svg>
