<svg width="22" height="33" viewBox="0 0 20 29" fill="none" xmlns="http://www.w3.org/2000/svg">
    <path d="M20.0001 34.5002H6.10352e-05V24.0002C6.10352e-05 22.3426 0.658541 20.7529 1.83064 19.5808C3.00275 18.4087 4.59246 17.7502 6.25006 17.7502H13.7501C15.4077 17.7502 16.9974 18.4087 18.1695 19.5808C19.3416 20.7529 20.0001 22.3426 20.0001 24.0002V34.5002ZM10.0001 15.2502C9.01515 15.2502 8.03988 15.0563 7.12993 14.6793C6.21999 14.3024 5.3932 13.75 4.69676 13.0535C4.00032 12.3571 3.44787 11.5303 3.07096 10.6204C2.69405 9.71043 2.50006 8.73516 2.50006 7.75024C2.50006 6.76533 2.69405 5.79006 3.07096 4.88012C3.44787 3.97018 4.00032 3.14338 4.69676 2.44694C5.3932 1.7505 6.21999 1.19806 7.12993 0.821148C8.03988 0.444237 9.01515 0.250244 10.0001 0.250244C11.9892 0.250244 13.8968 1.04042 15.3034 2.44694C16.7099 3.85347 17.5001 5.76112 17.5001 7.75024C17.5001 9.73937 16.7099 11.647 15.3034 13.0535C13.8968 14.4601 11.9892 15.2502 10.0001 15.2502Z" fill="#F2F4F7"/>
</svg>
