<svg width="56" height="56" viewBox="0 0 56 56" fill="currenColor" xmlns="http://www.w3.org/2000/svg">
    <path d="M45.2105 28.9707L20.4795 45.4581C20.3038 45.575 20.0997 45.6421 19.8889 45.6521C19.6781 45.6622 19.4685 45.6149 19.2825 45.5153C19.0965 45.4157 18.9409 45.2675 18.8324 45.0865C18.724 44.9055 18.6666 44.6984 18.6665 44.4874V11.5127C18.6666 11.3017 18.724 11.0947 18.8324 10.9136C18.9409 10.7326 19.0965 10.5844 19.2825 10.4848C19.4685 10.3852 19.6781 10.3379 19.8889 10.348C20.0997 10.3581 20.3038 10.4252 20.4795 10.5421L45.2105 27.0294C45.3703 27.136 45.5013 27.2803 45.5919 27.4496C45.6825 27.619 45.7299 27.808 45.7299 28.0001C45.7299 28.1921 45.6825 28.3812 45.5919 28.5505C45.5013 28.7199 45.3703 28.8642 45.2105 28.9707Z" fill="currentColor"/>
</svg>
