<svg  viewBox="0 0 20 20" fill="none" xmlns="http://www.w3.org/2000/svg">
    <path d="M16.6667 18.3333H3.33334V16.6666C3.33334 15.5615 3.77233 14.5017 4.55373 13.7203C5.33513 12.9389 6.39494 12.4999 7.50001 12.4999H12.5C13.6051 12.4999 14.6649 12.9389 15.4463 13.7203C16.2277 14.5017 16.6667 15.5615 16.6667 16.6666V18.3333ZM10 10.8333C9.3434 10.8333 8.69322 10.7039 8.08659 10.4526C7.47996 10.2014 6.92877 9.83308 6.46448 9.36879C6.00018 8.90449 5.63189 8.3533 5.38061 7.74667C5.12934 7.14004 5.00001 6.48986 5.00001 5.83325C5.00001 5.17664 5.12934 4.52646 5.38061 3.91983C5.63189 3.31321 6.00018 2.76201 6.46448 2.29772C6.92877 1.83343 7.47996 1.46513 8.08659 1.21385C8.69322 0.962581 9.3434 0.833252 10 0.833252C11.3261 0.833252 12.5979 1.36004 13.5355 2.29772C14.4732 3.2354 15 4.50717 15 5.83325C15 7.15933 14.4732 8.4311 13.5355 9.36879C12.5979 10.3065 11.3261 10.8333 10 10.8333Z" fill="currentColor"/>
</svg>
