<svg width="24" height="24" viewBox="0 0 24 24" fill="none" xmlns="http://www.w3.org/2000/svg">
    <circle cx="12" cy="12" r="10.5" stroke="#E6E9EE" stroke-width="3"/>
    <mask id="path-2-inside-1_232_2893" fill="white">
        <path d="M12 1.49733C12 0.67038 12.673 -0.00963125 13.4935 0.0932886C15.0011 0.282395 16.4595 0.756231 17.7903 1.48941C18.5146 1.88844 18.6594 2.83415 18.1733 3.50317C17.6872 4.17219 16.7546 4.30756 16.0144 3.93893C15.2182 3.54246 14.3676 3.26607 13.4905 3.11886C12.6749 2.98199 12 2.32429 12 1.49733Z"/>
    </mask>
    <path d="M12 1.49733C12 0.67038 12.673 -0.00963125 13.4935 0.0932886C15.0011 0.282395 16.4595 0.756231 17.7903 1.48941C18.5146 1.88844 18.6594 2.83415 18.1733 3.50317C17.6872 4.17219 16.7546 4.30756 16.0144 3.93893C15.2182 3.54246 14.3676 3.26607 13.4905 3.11886C12.6749 2.98199 12 2.32429 12 1.49733Z" stroke="#D64545" stroke-width="4" mask="url(#path-2-inside-1_232_2893)"/>
    <path d="M13.3223 8V16H11.873V9.41016H11.8262L9.95508 10.6055V9.27734L11.9434 8H13.3223Z" fill="#D64545"/>
</svg>
